<?xml version="1.0" standalone="no"?><!DOCTYPE svg PUBLIC "-//W3C//DTD SVG 1.1//EN" "http://www.w3.org/Graphics/SVG/1.1/DTD/svg11.dtd"><svg t="1526574489113" class="icon" style="" viewBox="0 0 1024 1024" version="1.1" xmlns="http://www.w3.org/2000/svg" p-id="552" xmlns:xlink="http://www.w3.org/1999/xlink" width="200" height="200"><defs><style type="text/css"></style></defs><path d="M512 512m-512 0a512 512 0 1 0 1024 0 512 512 0 1 0-1024 0Z" fill="#3DFCB8" p-id="553"></path><path d="M876.032 260.096l-333.824-192.512c-20.48-11.776-45.056-11.776-65.536 0L142.848 260.096c-20.48 11.776-32.768 33.28-32.768 56.832v385.024c0 23.552 12.288 45.056 32.768 56.832l333.824 192.512c20.48 11.776 45.056 11.776 65.536 0l333.824-192.512c20.48-11.776 32.768-33.28 32.768-56.832V316.928c-0.512-23.552-12.8-45.056-32.768-56.832z" fill="" p-id="554"></path><path d="M755.712 281.088c-6.656-10.752-34.816-32.256-76.8-43.52-30.72-7.68-62.464-9.728-94.72-5.12-30.208 4.096-59.904 8.704-90.112 12.8-39.936 10.24-82.432 18.432-119.296 30.72-12.8 4.096-24.064 4.608-34.304 11.264-19.456 12.288-32.768 31.232-45.568 50.176-7.68 10.24-42.496 53.248-35.84 67.584 0.512 8.192 2.048 8.192 5.12 12.8 53.248 1.024 107.52-20.48 148.48-38.912-2.048-11.264-12.288-10.24-19.456-16.384-1.536-1.024-0.512 0 0-1.536 11.264-14.336 42.496-16.896 61.952-22.528 13.312-4.096 27.136-5.632 42.496-9.728 53.248-14.336 195.584-31.744 214.016 22.528 7.68 22.016-7.68 36.864-17.92 46.592-31.744 30.72-69.632 39.424-137.216 50.176-13.312 2.048-27.136 4.096-40.96 6.656-7.168 0.512-14.336 1.024-20.992 1.536 28.16-31.744 56.832-63.488 84.992-95.232V358.4l-1.536-1.536C515.584 358.4 473.6 399.36 445.44 436.224c-8.704 11.264-21.504 19.968-29.184 32.256-38.912 1.024-89.088 6.656-114.176 22.528-1.024 2.56-0.512 1.536-1.536 3.072-1.024 39.424 28.672 31.744 58.88 40.448-30.72 47.104-74.752 82.944-84.992 150.016-2.048 14.336 6.144 30.72 11.264 38.912 15.872 24.064 38.912 35.328 70.144 43.52l24.576 1.536c9.728 2.048 31.744 4.096 44.032 1.536 22.528-5.12 45.568-6.144 67.072-12.8 47.104-15.36 88.576-35.84 124.416-61.44 10.24-7.168 22.016-14.336 29.184-24.064 21.504-28.16 28.672-61.952 5.12-93.696-8.704-11.264-24.064-17.408-37.376-24.064-35.84-18.432-111.616-39.424-164.864-38.912 3.584-9.728 12.8-15.872 17.92-24.064 113.152-7.68 265.728-50.176 300.544-132.096 4.608-12.8 8.704-47.616-10.752-77.824z m-173.056 296.96c6.144 4.096 9.216 12.288 14.848 17.92 0 9.728 0.512 19.456-3.072 25.6-22.528 37.888-84.992 53.248-135.68 64.512-17.92 4.096-48.64 1.024-61.952-3.072-22.528-7.168-25.6-18.944-39.424-33.792 0-54.272 43.008-72.704 65.536-106.496 43.52 0.512 133.12 17.408 159.744 35.328z" fill="#3DFCB8" p-id="555"></path></svg>